<svg width="1280" height="720" viewBox="0 0 1280 720" xmlns="http://www.w3.org/2000/svg">
<rect x="0" y="0" width="1279" height="719" opacity="1" fill="#FFFFFF" stroke="none"/>
<line opacity="0.1" stroke="#000000" stroke-width="1" x1="50" y1="669" x2="1270" y2="669"/>
<line opacity="0.1" stroke="#000000" stroke-width="1" x1="50" y1="660" x2="1270" y2="660"/>
<line opacity="0.1" stroke="#000000" stroke-width="1" x1="50" y1="651" x2="1270" y2="651"/>
<line opacity="0.1" stroke="#000000" stroke-width="1" x1="50" y1="642" x2="1270" y2="642"/>
<line opacity="0.1" stroke="#000000" stroke-width="1" x1="50" y1="634" x2="1270" y2="634"/>
<line opacity="0.1" stroke="#000000" stroke-width="1" x1="50" y1="625" x2="1270" y2="625"/>
<line opacity="0.1" stroke="#000000" stroke-width="1" x1="50" y1="616" x2="1270" y2="616"/>
<line opacity="0.1" stroke="#000000" stroke-width="1" x1="50" y1="608" x2="1270" y2="608"/>
<line opacity="0.1" stroke="#000000" stroke-width="1" x1="50" y1="599" x2="1270" y2="599"/>
<line opacity="0.1" stroke="#000000" stroke-width="1" x1="50" y1="590" x2="1270" y2="590"/>
<line opacity="0.1" stroke="#000000" stroke-width="1" x1="50" y1="582" x2="1270" y2="582"/>
<line opacity="0.1" stroke="#000000" stroke-width="1" x1="50" y1="573" x2="1270" y2="573"/>
<line opacity="0.1" stroke="#000000" stroke-width="1" x1="50" y1="564" x2="1270" y2="564"/>
<line opacity="0.1" stroke="#000000" stroke-width="1" x1="50" y1="555" x2="1270" y2="555"/>
<line opacity="0.1" stroke="#000000" stroke-width="1" x1="50" y1="547" x2="1270" y2="547"/>
<line opacity="0.1" stroke="#000000" stroke-width="1" x1="50" y1="538" x2="1270" y2="538"/>
<line opacity="0.1" stroke="#000000" stroke-width="1" x1="50" y1="529" x2="1270" y2="529"/>
<line opacity="0.1" stroke="#000000" stroke-width="1" x1="50" y1="521" x2="1270" y2="521"/>
<line opacity="0.1" stroke="#000000" stroke-width="1" x1="50" y1="512" x2="1270" y2="512"/>
<line opacity="0.1" stroke="#000000" stroke-width="1" x1="50" y1="503" x2="1270" y2="503"/>
<line opacity="0.1" stroke="#000000" stroke-width="1" x1="50" y1="495" x2="1270" y2="495"/>
<line opacity="0.1" stroke="#000000" stroke-width="1" x1="50" y1="486" x2="1270" y2="486"/>
<line opacity="0.1" stroke="#000000" stroke-width="1" x1="50" y1="477" x2="1270" y2="477"/>
<line opacity="0.1" stroke="#000000" stroke-width="1" x1="50" y1="469" x2="1270" y2="469"/>
<line opacity="0.1" stroke="#000000" stroke-width="1" x1="50" y1="460" x2="1270" y2="460"/>
<line opacity="0.1" stroke="#000000" stroke-width="1" x1="50" y1="451" x2="1270" y2="451"/>
<line opacity="0.1" stroke="#000000" stroke-width="1" x1="50" y1="442" x2="1270" y2="442"/>
<line opacity="0.1" stroke="#000000" stroke-width="1" x1="50" y1="434" x2="1270" y2="434"/>
<line opacity="0.1" stroke="#000000" stroke-width="1" x1="50" y1="425" x2="1270" y2="425"/>
<line opacity="0.1" stroke="#000000" stroke-width="1" x1="50" y1="416" x2="1270" y2="416"/>
<line opacity="0.1" stroke="#000000" stroke-width="1" x1="50" y1="408" x2="1270" y2="408"/>
<line opacity="0.1" stroke="#000000" stroke-width="1" x1="50" y1="399" x2="1270" y2="399"/>
<line opacity="0.1" stroke="#000000" stroke-width="1" x1="50" y1="390" x2="1270" y2="390"/>
<line opacity="0.1" stroke="#000000" stroke-width="1" x1="50" y1="382" x2="1270" y2="382"/>
<line opacity="0.1" stroke="#000000" stroke-width="1" x1="50" y1="373" x2="1270" y2="373"/>
<line opacity="0.1" stroke="#000000" stroke-width="1" x1="50" y1="364" x2="1270" y2="364"/>
<line opacity="0.1" stroke="#000000" stroke-width="1" x1="50" y1="355" x2="1270" y2="355"/>
<line opacity="0.1" stroke="#000000" stroke-width="1" x1="50" y1="347" x2="1270" y2="347"/>
<line opacity="0.1" stroke="#000000" stroke-width="1" x1="50" y1="338" x2="1270" y2="338"/>
<line opacity="0.1" stroke="#000000" stroke-width="1" x1="50" y1="329" x2="1270" y2="329"/>
<line opacity="0.1" stroke="#000000" stroke-width="1" x1="50" y1="321" x2="1270" y2="321"/>
<line opacity="0.1" stroke="#000000" stroke-width="1" x1="50" y1="312" x2="1270" y2="312"/>
<line opacity="0.1" stroke="#000000" stroke-width="1" x1="50" y1="303" x2="1270" y2="303"/>
<line opacity="0.1" stroke="#000000" stroke-width="1" x1="50" y1="295" x2="1270" y2="295"/>
<line opacity="0.1" stroke="#000000" stroke-width="1" x1="50" y1="286" x2="1270" y2="286"/>
<line opacity="0.1" stroke="#000000" stroke-width="1" x1="50" y1="277" x2="1270" y2="277"/>
<line opacity="0.1" stroke="#000000" stroke-width="1" x1="50" y1="269" x2="1270" y2="269"/>
<line opacity="0.1" stroke="#000000" stroke-width="1" x1="50" y1="260" x2="1270" y2="260"/>
<line opacity="0.1" stroke="#000000" stroke-width="1" x1="50" y1="251" x2="1270" y2="251"/>
<line opacity="0.1" stroke="#000000" stroke-width="1" x1="50" y1="242" x2="1270" y2="242"/>
<line opacity="0.1" stroke="#000000" stroke-width="1" x1="50" y1="234" x2="1270" y2="234"/>
<line opacity="0.1" stroke="#000000" stroke-width="1" x1="50" y1="225" x2="1270" y2="225"/>
<line opacity="0.1" stroke="#000000" stroke-width="1" x1="50" y1="216" x2="1270" y2="216"/>
<line opacity="0.1" stroke="#000000" stroke-width="1" x1="50" y1="208" x2="1270" y2="208"/>
<line opacity="0.1" stroke="#000000" stroke-width="1" x1="50" y1="199" x2="1270" y2="199"/>
<line opacity="0.1" stroke="#000000" stroke-width="1" x1="50" y1="190" x2="1270" y2="190"/>
<line opacity="0.1" stroke="#000000" stroke-width="1" x1="50" y1="182" x2="1270" y2="182"/>
<line opacity="0.1" stroke="#000000" stroke-width="1" x1="50" y1="173" x2="1270" y2="173"/>
<line opacity="0.1" stroke="#000000" stroke-width="1" x1="50" y1="164" x2="1270" y2="164"/>
<line opacity="0.1" stroke="#000000" stroke-width="1" x1="50" y1="155" x2="1270" y2="155"/>
<line opacity="0.1" stroke="#000000" stroke-width="1" x1="50" y1="147" x2="1270" y2="147"/>
<line opacity="0.1" stroke="#000000" stroke-width="1" x1="50" y1="138" x2="1270" y2="138"/>
<line opacity="0.1" stroke="#000000" stroke-width="1" x1="50" y1="129" x2="1270" y2="129"/>
<line opacity="0.1" stroke="#000000" stroke-width="1" x1="50" y1="121" x2="1270" y2="121"/>
<line opacity="0.1" stroke="#000000" stroke-width="1" x1="50" y1="112" x2="1270" y2="112"/>
<line opacity="0.1" stroke="#000000" stroke-width="1" x1="50" y1="103" x2="1270" y2="103"/>
<line opacity="0.1" stroke="#000000" stroke-width="1" x1="50" y1="95" x2="1270" y2="95"/>
<line opacity="0.1" stroke="#000000" stroke-width="1" x1="50" y1="86" x2="1270" y2="86"/>
<line opacity="0.1" stroke="#000000" stroke-width="1" x1="50" y1="77" x2="1270" y2="77"/>
<line opacity="0.1" stroke="#000000" stroke-width="1" x1="50" y1="69" x2="1270" y2="69"/>
<line opacity="0.1" stroke="#000000" stroke-width="1" x1="50" y1="60" x2="1270" y2="60"/>
<line opacity="0.1" stroke="#000000" stroke-width="1" x1="50" y1="51" x2="1270" y2="51"/>
<line opacity="0.1" stroke="#000000" stroke-width="1" x1="50" y1="42" x2="1270" y2="42"/>
<line opacity="0.1" stroke="#000000" stroke-width="1" x1="50" y1="34" x2="1270" y2="34"/>
<line opacity="0.1" stroke="#000000" stroke-width="1" x1="50" y1="25" x2="1270" y2="25"/>
<line opacity="0.1" stroke="#000000" stroke-width="1" x1="50" y1="16" x2="1270" y2="16"/>
<line opacity="0.2" stroke="#000000" stroke-width="1" x1="50" y1="669" x2="1270" y2="669"/>
<line opacity="0.2" stroke="#000000" stroke-width="1" x1="50" y1="582" x2="1270" y2="582"/>
<line opacity="0.2" stroke="#000000" stroke-width="1" x1="50" y1="495" x2="1270" y2="495"/>
<line opacity="0.2" stroke="#000000" stroke-width="1" x1="50" y1="408" x2="1270" y2="408"/>
<line opacity="0.2" stroke="#000000" stroke-width="1" x1="50" y1="321" x2="1270" y2="321"/>
<line opacity="0.2" stroke="#000000" stroke-width="1" x1="50" y1="234" x2="1270" y2="234"/>
<line opacity="0.2" stroke="#000000" stroke-width="1" x1="50" y1="147" x2="1270" y2="147"/>
<line opacity="0.2" stroke="#000000" stroke-width="1" x1="50" y1="60" x2="1270" y2="60"/>
<polyline fill="none" opacity="1" stroke="#000000" stroke-width="1" points="49,10 49,670 "/>
<text x="40" y="669" dy="0.5ex" text-anchor="end" font-family="sans-serif" font-size="9.67741935483871" opacity="1" fill="#000000">
0
</text>
<polyline fill="none" opacity="1" stroke="#000000" stroke-width="1" points="44,669 49,669 "/>
<text x="40" y="582" dy="0.5ex" text-anchor="end" font-family="sans-serif" font-size="9.67741935483871" opacity="1" fill="#000000">
100
</text>
<polyline fill="none" opacity="1" stroke="#000000" stroke-width="1" points="44,582 49,582 "/>
<text x="40" y="495" dy="0.5ex" text-anchor="end" font-family="sans-serif" font-size="9.67741935483871" opacity="1" fill="#000000">
200
</text>
<polyline fill="none" opacity="1" stroke="#000000" stroke-width="1" points="44,495 49,495 "/>
<text x="40" y="408" dy="0.5ex" text-anchor="end" font-family="sans-serif" font-size="9.67741935483871" opacity="1" fill="#000000">
300
</text>
<polyline fill="none" opacity="1" stroke="#000000" stroke-width="1" points="44,408 49,408 "/>
<text x="40" y="321" dy="0.5ex" text-anchor="end" font-family="sans-serif" font-size="9.67741935483871" opacity="1" fill="#000000">
400
</text>
<polyline fill="none" opacity="1" stroke="#000000" stroke-width="1" points="44,321 49,321 "/>
<text x="40" y="234" dy="0.5ex" text-anchor="end" font-family="sans-serif" font-size="9.67741935483871" opacity="1" fill="#000000">
500
</text>
<polyline fill="none" opacity="1" stroke="#000000" stroke-width="1" points="44,234 49,234 "/>
<text x="40" y="147" dy="0.5ex" text-anchor="end" font-family="sans-serif" font-size="9.67741935483871" opacity="1" fill="#000000">
600
</text>
<polyline fill="none" opacity="1" stroke="#000000" stroke-width="1" points="44,147 49,147 "/>
<text x="40" y="60" dy="0.5ex" text-anchor="end" font-family="sans-serif" font-size="9.67741935483871" opacity="1" fill="#000000">
700
</text>
<polyline fill="none" opacity="1" stroke="#000000" stroke-width="1" points="44,60 49,60 "/>
<polyline fill="none" opacity="1" stroke="#000000" stroke-width="1" points="50,670 1270,670 "/>
<text x="50" y="680" dy="0.76em" text-anchor="middle" font-family="sans-serif" font-size="9.67741935483871" opacity="1" fill="#000000">
0
</text>
<polyline fill="none" opacity="1" stroke="#000000" stroke-width="1" points="50,670 50,675 "/>
<text x="288" y="680" dy="0.76em" text-anchor="middle" font-family="sans-serif" font-size="9.67741935483871" opacity="1" fill="#000000">
50
</text>
<polyline fill="none" opacity="1" stroke="#000000" stroke-width="1" points="288,670 288,675 "/>
<text x="526" y="680" dy="0.76em" text-anchor="middle" font-family="sans-serif" font-size="9.67741935483871" opacity="1" fill="#000000">
100
</text>
<polyline fill="none" opacity="1" stroke="#000000" stroke-width="1" points="526,670 526,675 "/>
<text x="764" y="680" dy="0.76em" text-anchor="middle" font-family="sans-serif" font-size="9.67741935483871" opacity="1" fill="#000000">
150
</text>
<polyline fill="none" opacity="1" stroke="#000000" stroke-width="1" points="764,670 764,675 "/>
<text x="1003" y="680" dy="0.76em" text-anchor="middle" font-family="sans-serif" font-size="9.67741935483871" opacity="1" fill="#000000">
200
</text>
<polyline fill="none" opacity="1" stroke="#000000" stroke-width="1" points="1003,670 1003,675 "/>
<text x="1241" y="680" dy="0.76em" text-anchor="middle" font-family="sans-serif" font-size="9.67741935483871" opacity="1" fill="#000000">
250
</text>
<polyline fill="none" opacity="1" stroke="#000000" stroke-width="1" points="1241,670 1241,675 "/>
<rect x="869" y="377" width="-5" height="292" opacity="1" fill="#000000" stroke="none"/>
<rect x="445" y="471" width="-5" height="198" opacity="1" fill="#000000" stroke="none"/>
<rect x="155" y="667" width="-6" height="2" opacity="1" fill="#000000" stroke="none"/>
<rect x="865" y="394" width="-6" height="275" opacity="1" fill="#000000" stroke="none"/>
<rect x="888" y="405" width="-5" height="264" opacity="1" fill="#000000" stroke="none"/>
<rect x="917" y="497" width="-5" height="172" opacity="1" fill="#000000" stroke="none"/>
<rect x="946" y="548" width="-6" height="121" opacity="1" fill="#000000" stroke="none"/>
<rect x="202" y="609" width="-5" height="60" opacity="1" fill="#000000" stroke="none"/>
<rect x="159" y="666" width="-5" height="3" opacity="1" fill="#000000" stroke="none"/>
<rect x="1151" y="663" width="-6" height="6" opacity="1" fill="#000000" stroke="none"/>
<rect x="1260" y="669" width="-5" height="0" opacity="1" fill="#000000" stroke="none"/>
<rect x="1031" y="465" width="-5" height="204" opacity="1" fill="#000000" stroke="none"/>
<rect x="140" y="669" width="-5" height="0" opacity="1" fill="#000000" stroke="none"/>
<rect x="345" y="442" width="-5" height="227" opacity="1" fill="#000000" stroke="none"/>
<rect x="1160" y="664" width="-5" height="5" opacity="1" fill="#000000" stroke="none"/>
<rect x="145" y="669" width="-5" height="0" opacity="1" fill="#000000" stroke="none"/>
<rect x="517" y="250" width="-5" height="419" opacity="1" fill="#000000" stroke="none"/>
<rect x="493" y="403" width="-5" height="266" opacity="1" fill="#000000" stroke="none"/>
<rect x="617" y="335" width="-5" height="334" opacity="1" fill="#000000" stroke="none"/>
<rect x="1070" y="511" width="-6" height="158" opacity="1" fill="#000000" stroke="none"/>
<rect x="941" y="537" width="-5" height="132" opacity="1" fill="#000000" stroke="none"/>
<rect x="259" y="294" width="-5" height="375" opacity="1" fill="#000000" stroke="none"/>
<rect x="293" y="227" width="-5" height="442" opacity="1" fill="#000000" stroke="none"/>
<rect x="379" y="475" width="-6" height="194" opacity="1" fill="#000000" stroke="none"/>
<rect x="1236" y="669" width="-5" height="0" opacity="1" fill="#000000" stroke="none"/>
<rect x="850" y="404" width="-5" height="265" opacity="1" fill="#000000" stroke="none"/>
<rect x="183" y="644" width="-5" height="25" opacity="1" fill="#000000" stroke="none"/>
<rect x="483" y="415" width="-5" height="254" opacity="1" fill="#000000" stroke="none"/>
<rect x="722" y="162" width="-6" height="507" opacity="1" fill="#000000" stroke="none"/>
<rect x="807" y="198" width="-5" height="471" opacity="1" fill="#000000" stroke="none"/>
<rect x="1127" y="643" width="-5" height="26" opacity="1" fill="#000000" stroke="none"/>
<rect x="631" y="283" width="-5" height="386" opacity="1" fill="#000000" stroke="none"/>
<rect x="674" y="167" width="-5" height="502" opacity="1" fill="#000000" stroke="none"/>
<rect x="1203" y="669" width="-5" height="0" opacity="1" fill="#000000" stroke="none"/>
<rect x="136" y="669" width="-6" height="0" opacity="1" fill="#000000" stroke="none"/>
<rect x="1108" y="629" width="-6" height="40" opacity="1" fill="#000000" stroke="none"/>
<rect x="884" y="418" width="-6" height="251" opacity="1" fill="#000000" stroke="none"/>
<rect x="836" y="376" width="-5" height="293" opacity="1" fill="#000000" stroke="none"/>
<rect x="178" y="642" width="-5" height="27" opacity="1" fill="#000000" stroke="none"/>
<rect x="402" y="468" width="-5" height="201" opacity="1" fill="#000000" stroke="none"/>
<rect x="641" y="282" width="-6" height="387" opacity="1" fill="#000000" stroke="none"/>
<rect x="512" y="298" width="-5" height="371" opacity="1" fill="#000000" stroke="none"/>
<rect x="431" y="465" width="-5" height="204" opacity="1" fill="#000000" stroke="none"/>
<rect x="541" y="249" width="-6" height="420" opacity="1" fill="#000000" stroke="none"/>
<rect x="1084" y="591" width="-5" height="78" opacity="1" fill="#000000" stroke="none"/>
<rect x="1270" y="669" width="-5" height="0" opacity="1" fill="#000000" stroke="none"/>
<rect x="226" y="545" width="-5" height="124" opacity="1" fill="#000000" stroke="none"/>
<rect x="622" y="319" width="-6" height="350" opacity="1" fill="#000000" stroke="none"/>
<rect x="1184" y="669" width="-5" height="0" opacity="1" fill="#000000" stroke="none"/>
<rect x="126" y="669" width="-5" height="0" opacity="1" fill="#000000" stroke="none"/>
<rect x="1170" y="666" width="-6" height="3" opacity="1" fill="#000000" stroke="none"/>
<rect x="998" y="519" width="-5" height="150" opacity="1" fill="#000000" stroke="none"/>
<rect x="793" y="75" width="-5" height="594" opacity="1" fill="#000000" stroke="none"/>
<rect x="817" y="285" width="-5" height="384" opacity="1" fill="#000000" stroke="none"/>
<rect x="407" y="435" width="-5" height="234" opacity="1" fill="#000000" stroke="none"/>
<rect x="1246" y="668" width="-5" height="1" opacity="1" fill="#000000" stroke="none"/>
<rect x="788" y="64" width="-5" height="605" opacity="1" fill="#000000" stroke="none"/>
<rect x="1265" y="669" width="-5" height="0" opacity="1" fill="#000000" stroke="none"/>
<rect x="1179" y="667" width="-5" height="2" opacity="1" fill="#000000" stroke="none"/>
<rect x="150" y="667" width="-5" height="2" opacity="1" fill="#000000" stroke="none"/>
<rect x="1051" y="447" width="-6" height="222" opacity="1" fill="#000000" stroke="none"/>
<rect x="326" y="383" width="-5" height="286" opacity="1" fill="#000000" stroke="none"/>
<rect x="507" y="285" width="-5" height="384" opacity="1" fill="#000000" stroke="none"/>
<rect x="731" y="116" width="-5" height="553" opacity="1" fill="#000000" stroke="none"/>
<rect x="78" y="669" width="-5" height="0" opacity="1" fill="#000000" stroke="none"/>
<rect x="393" y="489" width="-5" height="180" opacity="1" fill="#000000" stroke="none"/>
<rect x="931" y="538" width="-5" height="131" opacity="1" fill="#000000" stroke="none"/>
<rect x="1079" y="586" width="-5" height="83" opacity="1" fill="#000000" stroke="none"/>
<rect x="531" y="255" width="-5" height="414" opacity="1" fill="#000000" stroke="none"/>
<rect x="1017" y="461" width="-5" height="208" opacity="1" fill="#000000" stroke="none"/>
<rect x="1146" y="657" width="-5" height="12" opacity="1" fill="#000000" stroke="none"/>
<rect x="474" y="441" width="-5" height="228" opacity="1" fill="#000000" stroke="none"/>
<rect x="336" y="427" width="-6" height="242" opacity="1" fill="#000000" stroke="none"/>
<rect x="307" y="272" width="-5" height="397" opacity="1" fill="#000000" stroke="none"/>
<rect x="970" y="481" width="-6" height="188" opacity="1" fill="#000000" stroke="none"/>
<rect x="626" y="258" width="-5" height="411" opacity="1" fill="#000000" stroke="none"/>
<rect x="798" y="113" width="-5" height="556" opacity="1" fill="#000000" stroke="none"/>
<rect x="765" y="186" width="-6" height="483" opacity="1" fill="#000000" stroke="none"/>
<rect x="174" y="664" width="-6" height="5" opacity="1" fill="#000000" stroke="none"/>
<rect x="1036" y="451" width="-5" height="218" opacity="1" fill="#000000" stroke="none"/>
<rect x="250" y="394" width="-5" height="275" opacity="1" fill="#000000" stroke="none"/>
<rect x="350" y="468" width="-5" height="201" opacity="1" fill="#000000" stroke="none"/>
<rect x="426" y="462" width="-5" height="207" opacity="1" fill="#000000" stroke="none"/>
<rect x="598" y="356" width="-5" height="313" opacity="1" fill="#000000" stroke="none"/>
<rect x="1155" y="662" width="-5" height="7" opacity="1" fill="#000000" stroke="none"/>
<rect x="59" y="669" width="-5" height="0" opacity="1" fill="#000000" stroke="none"/>
<rect x="421" y="457" width="-5" height="212" opacity="1" fill="#000000" stroke="none"/>
<rect x="69" y="669" width="-5" height="0" opacity="1" fill="#000000" stroke="none"/>
<rect x="83" y="669" width="-5" height="0" opacity="1" fill="#000000" stroke="none"/>
<rect x="274" y="237" width="-6" height="432" opacity="1" fill="#000000" stroke="none"/>
<rect x="264" y="272" width="-5" height="397" opacity="1" fill="#000000" stroke="none"/>
<rect x="803" y="156" width="-6" height="513" opacity="1" fill="#000000" stroke="none"/>
<rect x="278" y="225" width="-5" height="444" opacity="1" fill="#000000" stroke="none"/>
<rect x="569" y="391" width="-5" height="278" opacity="1" fill="#000000" stroke="none"/>
<rect x="236" y="482" width="-6" height="187" opacity="1" fill="#000000" stroke="none"/>
<rect x="1189" y="668" width="-6" height="1" opacity="1" fill="#000000" stroke="none"/>
<rect x="841" y="383" width="-5" height="286" opacity="1" fill="#000000" stroke="none"/>
<rect x="74" y="669" width="-6" height="0" opacity="1" fill="#000000" stroke="none"/>
<rect x="669" y="136" width="-5" height="533" opacity="1" fill="#000000" stroke="none"/>
<rect x="583" y="426" width="-5" height="243" opacity="1" fill="#000000" stroke="none"/>
<rect x="822" y="334" width="-5" height="335" opacity="1" fill="#000000" stroke="none"/>
<rect x="684" y="255" width="-6" height="414" opacity="1" fill="#000000" stroke="none"/>
<rect x="579" y="382" width="-6" height="287" opacity="1" fill="#000000" stroke="none"/>
<rect x="212" y="585" width="-5" height="84" opacity="1" fill="#000000" stroke="none"/>
<rect x="283" y="211" width="-5" height="458" opacity="1" fill="#000000" stroke="none"/>
<rect x="536" y="217" width="-5" height="452" opacity="1" fill="#000000" stroke="none"/>
<rect x="698" y="269" width="-5" height="400" opacity="1" fill="#000000" stroke="none"/>
<rect x="603" y="361" width="-6" height="308" opacity="1" fill="#000000" stroke="none"/>
<rect x="355" y="472" width="-5" height="197" opacity="1" fill="#000000" stroke="none"/>
<rect x="502" y="343" width="-5" height="326" opacity="1" fill="#000000" stroke="none"/>
<rect x="784" y="10" width="-6" height="659" opacity="1" fill="#000000" stroke="none"/>
<rect x="317" y="318" width="-6" height="351" opacity="1" fill="#000000" stroke="none"/>
<rect x="188" y="644" width="-5" height="25" opacity="1" fill="#000000" stroke="none"/>
<rect x="693" y="246" width="-5" height="423" opacity="1" fill="#000000" stroke="none"/>
<rect x="898" y="433" width="-5" height="236" opacity="1" fill="#000000" stroke="none"/>
<rect x="441" y="472" width="-6" height="197" opacity="1" fill="#000000" stroke="none"/>
<rect x="717" y="178" width="-5" height="491" opacity="1" fill="#000000" stroke="none"/>
<rect x="331" y="411" width="-5" height="258" opacity="1" fill="#000000" stroke="none"/>
<rect x="607" y="365" width="-5" height="304" opacity="1" fill="#000000" stroke="none"/>
<rect x="612" y="370" width="-5" height="299" opacity="1" fill="#000000" stroke="none"/>
<rect x="369" y="500" width="-5" height="169" opacity="1" fill="#000000" stroke="none"/>
<rect x="207" y="609" width="-5" height="60" opacity="1" fill="#000000" stroke="none"/>
<rect x="879" y="416" width="-5" height="253" opacity="1" fill="#000000" stroke="none"/>
<rect x="550" y="312" width="-5" height="357" opacity="1" fill="#000000" stroke="none"/>
<rect x="383" y="492" width="-5" height="177" opacity="1" fill="#000000" stroke="none"/>
<rect x="102" y="669" width="-5" height="0" opacity="1" fill="#000000" stroke="none"/>
<rect x="593" y="348" width="-5" height="321" opacity="1" fill="#000000" stroke="none"/>
<rect x="860" y="427" width="-5" height="242" opacity="1" fill="#000000" stroke="none"/>
<rect x="1012" y="488" width="-5" height="181" opacity="1" fill="#000000" stroke="none"/>
<rect x="908" y="478" width="-6" height="191" opacity="1" fill="#000000" stroke="none"/>
<rect x="1041" y="439" width="-5" height="230" opacity="1" fill="#000000" stroke="none"/>
<rect x="993" y="485" width="-5" height="184" opacity="1" fill="#000000" stroke="none"/>
<rect x="555" y="320" width="-5" height="349" opacity="1" fill="#000000" stroke="none"/>
<rect x="1046" y="439" width="-5" height="230" opacity="1" fill="#000000" stroke="none"/>
<rect x="1065" y="475" width="-5" height="194" opacity="1" fill="#000000" stroke="none"/>
<rect x="1122" y="642" width="-5" height="27" opacity="1" fill="#000000" stroke="none"/>
<rect x="660" y="115" width="-5" height="554" opacity="1" fill="#000000" stroke="none"/>
<rect x="1251" y="669" width="-6" height="0" opacity="1" fill="#000000" stroke="none"/>
<rect x="679" y="191" width="-5" height="478" opacity="1" fill="#000000" stroke="none"/>
<rect x="231" y="522" width="-5" height="147" opacity="1" fill="#000000" stroke="none"/>
<rect x="989" y="469" width="-6" height="200" opacity="1" fill="#000000" stroke="none"/>
<rect x="827" y="282" width="-6" height="387" opacity="1" fill="#000000" stroke="none"/>
<rect x="1112" y="626" width="-5" height="43" opacity="1" fill="#000000" stroke="none"/>
<rect x="221" y="553" width="-5" height="116" opacity="1" fill="#000000" stroke="none"/>
<rect x="412" y="471" width="-5" height="198" opacity="1" fill="#000000" stroke="none"/>
<rect x="922" y="510" width="-5" height="159" opacity="1" fill="#000000" stroke="none"/>
<rect x="360" y="491" width="-6" height="178" opacity="1" fill="#000000" stroke="none"/>
<rect x="960" y="505" width="-5" height="164" opacity="1" fill="#000000" stroke="none"/>
<rect x="1074" y="552" width="-5" height="117" opacity="1" fill="#000000" stroke="none"/>
<rect x="388" y="462" width="-5" height="207" opacity="1" fill="#000000" stroke="none"/>
<rect x="312" y="314" width="-5" height="355" opacity="1" fill="#000000" stroke="none"/>
<rect x="574" y="385" width="-5" height="284" opacity="1" fill="#000000" stroke="none"/>
<rect x="927" y="533" width="-6" height="136" opacity="1" fill="#000000" stroke="none"/>
<rect x="55" y="669" width="-6" height="0" opacity="1" fill="#000000" stroke="none"/>
<rect x="746" y="158" width="-6" height="511" opacity="1" fill="#000000" stroke="none"/>
<rect x="1117" y="636" width="-5" height="33" opacity="1" fill="#000000" stroke="none"/>
<rect x="812" y="213" width="-5" height="456" opacity="1" fill="#000000" stroke="none"/>
<rect x="374" y="487" width="-5" height="182" opacity="1" fill="#000000" stroke="none"/>
<rect x="655" y="137" width="-5" height="532" opacity="1" fill="#000000" stroke="none"/>
<rect x="1060" y="461" width="-5" height="208" opacity="1" fill="#000000" stroke="none"/>
<rect x="1022" y="489" width="-5" height="180" opacity="1" fill="#000000" stroke="none"/>
<rect x="1055" y="476" width="-5" height="193" opacity="1" fill="#000000" stroke="none"/>
<rect x="665" y="121" width="-6" height="548" opacity="1" fill="#000000" stroke="none"/>
<rect x="298" y="237" width="-6" height="432" opacity="1" fill="#000000" stroke="none"/>
<rect x="193" y="640" width="-6" height="29" opacity="1" fill="#000000" stroke="none"/>
<rect x="97" y="669" width="-5" height="0" opacity="1" fill="#000000" stroke="none"/>
<rect x="488" y="397" width="-5" height="272" opacity="1" fill="#000000" stroke="none"/>
<rect x="712" y="201" width="-5" height="468" opacity="1" fill="#000000" stroke="none"/>
<rect x="269" y="222" width="-5" height="447" opacity="1" fill="#000000" stroke="none"/>
<rect x="107" y="669" width="-5" height="0" opacity="1" fill="#000000" stroke="none"/>
<rect x="340" y="449" width="-5" height="220" opacity="1" fill="#000000" stroke="none"/>
<rect x="650" y="180" width="-5" height="489" opacity="1" fill="#000000" stroke="none"/>
<rect x="874" y="385" width="-5" height="284" opacity="1" fill="#000000" stroke="none"/>
<rect x="1141" y="657" width="-5" height="12" opacity="1" fill="#000000" stroke="none"/>
<rect x="116" y="669" width="-5" height="0" opacity="1" fill="#000000" stroke="none"/>
<rect x="703" y="268" width="-6" height="401" opacity="1" fill="#000000" stroke="none"/>
<rect x="1098" y="615" width="-5" height="54" opacity="1" fill="#000000" stroke="none"/>
<rect x="588" y="367" width="-5" height="302" opacity="1" fill="#000000" stroke="none"/>
<rect x="164" y="662" width="-5" height="7" opacity="1" fill="#000000" stroke="none"/>
<rect x="498" y="377" width="-6" height="292" opacity="1" fill="#000000" stroke="none"/>
<rect x="1089" y="583" width="-6" height="86" opacity="1" fill="#000000" stroke="none"/>
<rect x="469" y="462" width="-5" height="207" opacity="1" fill="#000000" stroke="none"/>
<rect x="774" y="131" width="-5" height="538" opacity="1" fill="#000000" stroke="none"/>
<rect x="1227" y="669" width="-5" height="0" opacity="1" fill="#000000" stroke="none"/>
<rect x="121" y="669" width="-5" height="0" opacity="1" fill="#000000" stroke="none"/>
<rect x="522" y="183" width="-6" height="486" opacity="1" fill="#000000" stroke="none"/>
<rect x="1241" y="669" width="-5" height="0" opacity="1" fill="#000000" stroke="none"/>
<rect x="736" y="138" width="-5" height="531" opacity="1" fill="#000000" stroke="none"/>
<rect x="1132" y="648" width="-6" height="21" opacity="1" fill="#000000" stroke="none"/>
<rect x="217" y="588" width="-6" height="81" opacity="1" fill="#000000" stroke="none"/>
<rect x="455" y="462" width="-5" height="207" opacity="1" fill="#000000" stroke="none"/>
<rect x="1213" y="669" width="-6" height="0" opacity="1" fill="#000000" stroke="none"/>
<rect x="769" y="176" width="-5" height="493" opacity="1" fill="#000000" stroke="none"/>
<rect x="707" y="201" width="-5" height="468" opacity="1" fill="#000000" stroke="none"/>
<rect x="1093" y="596" width="-5" height="73" opacity="1" fill="#000000" stroke="none"/>
<rect x="302" y="264" width="-5" height="405" opacity="1" fill="#000000" stroke="none"/>
<rect x="240" y="480" width="-5" height="189" opacity="1" fill="#000000" stroke="none"/>
<rect x="636" y="269" width="-5" height="400" opacity="1" fill="#000000" stroke="none"/>
<rect x="288" y="205" width="-5" height="464" opacity="1" fill="#000000" stroke="none"/>
<rect x="255" y="343" width="-6" height="326" opacity="1" fill="#000000" stroke="none"/>
<rect x="545" y="288" width="-5" height="381" opacity="1" fill="#000000" stroke="none"/>
<rect x="417" y="457" width="-6" height="212" opacity="1" fill="#000000" stroke="none"/>
<rect x="936" y="515" width="-5" height="154" opacity="1" fill="#000000" stroke="none"/>
<rect x="955" y="507" width="-5" height="162" opacity="1" fill="#000000" stroke="none"/>
<rect x="88" y="669" width="-5" height="0" opacity="1" fill="#000000" stroke="none"/>
<rect x="460" y="453" width="-6" height="216" opacity="1" fill="#000000" stroke="none"/>
<rect x="560" y="336" width="-6" height="333" opacity="1" fill="#000000" stroke="none"/>
<rect x="893" y="396" width="-5" height="273" opacity="1" fill="#000000" stroke="none"/>
<rect x="965" y="483" width="-5" height="186" opacity="1" fill="#000000" stroke="none"/>
<rect x="779" y="102" width="-5" height="567" opacity="1" fill="#000000" stroke="none"/>
<rect x="1027" y="477" width="-6" height="192" opacity="1" fill="#000000" stroke="none"/>
<rect x="688" y="245" width="-5" height="424" opacity="1" fill="#000000" stroke="none"/>
<rect x="64" y="669" width="-5" height="0" opacity="1" fill="#000000" stroke="none"/>
<rect x="1217" y="669" width="-5" height="0" opacity="1" fill="#000000" stroke="none"/>
<rect x="245" y="455" width="-5" height="214" opacity="1" fill="#000000" stroke="none"/>
<rect x="903" y="432" width="-5" height="237" opacity="1" fill="#000000" stroke="none"/>
<rect x="112" y="669" width="-6" height="0" opacity="1" fill="#000000" stroke="none"/>
<rect x="1193" y="669" width="-5" height="0" opacity="1" fill="#000000" stroke="none"/>
<rect x="321" y="382" width="-5" height="287" opacity="1" fill="#000000" stroke="none"/>
<rect x="984" y="469" width="-5" height="200" opacity="1" fill="#000000" stroke="none"/>
<rect x="979" y="453" width="-5" height="216" opacity="1" fill="#000000" stroke="none"/>
<rect x="479" y="393" width="-6" height="276" opacity="1" fill="#000000" stroke="none"/>
<rect x="974" y="469" width="-5" height="200" opacity="1" fill="#000000" stroke="none"/>
<rect x="726" y="153" width="-5" height="516" opacity="1" fill="#000000" stroke="none"/>
<rect x="436" y="465" width="-5" height="204" opacity="1" fill="#000000" stroke="none"/>
<rect x="1136" y="655" width="-5" height="14" opacity="1" fill="#000000" stroke="none"/>
<rect x="755" y="201" width="-5" height="468" opacity="1" fill="#000000" stroke="none"/>
<rect x="831" y="334" width="-5" height="335" opacity="1" fill="#000000" stroke="none"/>
<rect x="750" y="195" width="-5" height="474" opacity="1" fill="#000000" stroke="none"/>
<rect x="1255" y="669" width="-5" height="0" opacity="1" fill="#000000" stroke="none"/>
<rect x="846" y="388" width="-6" height="281" opacity="1" fill="#000000" stroke="none"/>
<rect x="1103" y="617" width="-5" height="52" opacity="1" fill="#000000" stroke="none"/>
<rect x="1008" y="463" width="-6" height="206" opacity="1" fill="#000000" stroke="none"/>
<rect x="1174" y="668" width="-5" height="1" opacity="1" fill="#000000" stroke="none"/>
<rect x="398" y="497" width="-6" height="172" opacity="1" fill="#000000" stroke="none"/>
<rect x="564" y="354" width="-5" height="315" opacity="1" fill="#000000" stroke="none"/>
<rect x="645" y="178" width="-5" height="491" opacity="1" fill="#000000" stroke="none"/>
<rect x="364" y="508" width="-5" height="161" opacity="1" fill="#000000" stroke="none"/>
<rect x="912" y="501" width="-5" height="168" opacity="1" fill="#000000" stroke="none"/>
<rect x="464" y="459" width="-5" height="210" opacity="1" fill="#000000" stroke="none"/>
<rect x="1222" y="669" width="-5" height="0" opacity="1" fill="#000000" stroke="none"/>
<rect x="131" y="669" width="-5" height="0" opacity="1" fill="#000000" stroke="none"/>
<rect x="1165" y="667" width="-5" height="2" opacity="1" fill="#000000" stroke="none"/>
<rect x="450" y="459" width="-5" height="210" opacity="1" fill="#000000" stroke="none"/>
<rect x="760" y="200" width="-5" height="469" opacity="1" fill="#000000" stroke="none"/>
<rect x="169" y="656" width="-5" height="13" opacity="1" fill="#000000" stroke="none"/>
<rect x="526" y="183" width="-5" height="486" opacity="1" fill="#000000" stroke="none"/>
<rect x="855" y="425" width="-5" height="244" opacity="1" fill="#000000" stroke="none"/>
<rect x="197" y="629" width="-5" height="40" opacity="1" fill="#000000" stroke="none"/>
<rect x="1208" y="669" width="-5" height="0" opacity="1" fill="#000000" stroke="none"/>
<rect x="93" y="669" width="-6" height="0" opacity="1" fill="#000000" stroke="none"/>
<rect x="741" y="125" width="-5" height="544" opacity="1" fill="#000000" stroke="none"/>
<rect x="1198" y="669" width="-5" height="0" opacity="1" fill="#000000" stroke="none"/>
<rect x="1232" y="669" width="-6" height="0" opacity="1" fill="#000000" stroke="none"/>
<rect x="1003" y="495" width="-5" height="174" opacity="1" fill="#000000" stroke="none"/>
<rect x="950" y="509" width="-5" height="160" opacity="1" fill="#000000" stroke="none"/>
</svg>
